<?xml version="1.0" encoding="UTF-8"?>
<svg id="Layer_1" xmlns="http://www.w3.org/2000/svg" width="3.7in" height="1.2in" version="1.1" viewBox="0 0 267.2 85.7">
  <!-- Generator: Adobe Illustrator 29.3.0, SVG Export Plug-In . SVG Version: 2.1.0 Build 146)  -->
  <defs>
    <style>
      .st0 {
        fill: #231f20;
      }
    </style>
  </defs>
  <g>
    <path class="st0" d="M37.2,79h-2.3l-.9-1.7c-.2-.4-.4-.6-.8-.7h-1.8v2.4h-1.9v-8h3.9c2,0,3.2,1.1,3.2,2.7s-.6,1.8-1.3,2.3c.2.2.4.5.6.9l1.2,2.1ZM33.4,75.1c.6,0,1.2-.5,1.2-1.2,0-.8-.6-1.3-1.5-1.3h-1.7v2.5h2Z"/>
    <path class="st0" d="M44.8,77.5v1.5h-6.4v-8h6.3v1.6h-4.4v1.7h4.2v1.4h-4.2v1.8h4.5Z"/>
    <path class="st0" d="M54.5,71l-3.4,8h-2.1l-3.4-8h2.2l2.4,6.2,2.4-6.2h2.1Z"/>
    <path class="st0" d="M55.5,79v-8h1.9v8h-1.9Z"/>
    <path class="st0" d="M65.8,77.5v1.5h-6.4v-8h6.3v1.6h-4.4v1.7h4.2v1.4h-4.2v1.8h4.5Z"/>
    <path class="st0" d="M79,71l-2.5,8h-2.1l-1.8-5.7h0l-1.8,5.7h-1.9l-2.5-8h2.1l1.5,5.7h0l1.7-5.7h2.1l1.6,5.7h0l1.6-5.7h2Z"/>
    <path class="st0" d="M79.8,78.5v-1.6c1,.5,2,.7,2.8.7s1.7-.3,1.7-.8-.3-.7-1.3-.9h-.7c-1.8-.5-2.6-1.4-2.6-2.5,0-1.6,1.5-2.4,3.5-2.4s1.7.1,2.6.4v1.6c-.9-.4-1.8-.4-2.4-.4s-1.7.2-1.7.8.3.6,1.4.8h.7c1.7.5,2.4,1.3,2.4,2.4,0,1.7-1.5,2.6-3.5,2.6s-2.2-.2-3.1-.6Z"/>
    <path class="st0" d="M89.9,74.9c0-2.4,1.8-4.1,4.3-4.1s4.3,1.7,4.3,4.1-1.8,4.2-4.3,4.2-4.3-1.7-4.3-4.2ZM96.6,75c0-1.4-1-2.4-2.4-2.4s-2.4,1-2.4,2.4,1,2.5,2.4,2.5,2.4-1.1,2.4-2.5Z"/>
    <path class="st0" d="M102,72.7v2.3h3.9v1.5h-3.9v2.5h-1.9v-8h6.2v1.7h-4.3Z"/>
  </g>
  <g>
    <path class="st0" d="M110.1,79v-8h1.9v8h-1.9Z"/>
    <path class="st0" d="M121.5,71v8h-1.6l-3.4-4.2c-.4-.6-.6-.8-.7-.9h0v5.1h-1.7v-8h1.6l3.4,4.2c.4.6.6.8.7.9h0v-5.1h1.7Z"/>
    <path class="st0" d="M131.3,75c0,2.5-1.7,4-4.6,4h-3.1v-8h3.1c2.9,0,4.6,1.5,4.6,4ZM129.4,75c0-1.5-1-2.4-2.7-2.4h-1.2v4.9h1.2c1.6,0,2.7-.9,2.7-2.4Z"/>
    <path class="st0" d="M132.8,79v-8h1.9v8h-1.9Z"/>
    <path class="st0" d="M143.2,77.5v1.5h-6.4v-8h6.3v1.6h-4.4v1.7h4.2v1.4h-4.2v1.8h4.5Z"/>
    <path class="st0" d="M154.8,76.7c0,1.4-1.2,2.3-3.2,2.3h-4.1v-8h4.1c1.8,0,2.9.8,2.9,2.1s-.4,1.4-1,1.7c.8.3,1.4.9,1.4,1.9ZM149.3,72.4v1.9h2.1c.6,0,1.1-.4,1.1-1s-.5-.9-1.2-.9h-1.9ZM152.7,76.6c0-.7-.6-1-1.2-1h-2.2v2h2c.8,0,1.3-.4,1.3-1.1Z"/>
    <path class="st0" d="M155.8,74.9c0-2.4,1.8-4.1,4.3-4.1s4.3,1.7,4.3,4.1-1.8,4.2-4.3,4.2-4.3-1.7-4.3-4.2ZM162.5,75c0-1.4-1-2.4-2.4-2.4s-2.4,1-2.4,2.4,1,2.5,2.4,2.5,2.4-1.1,2.4-2.5Z"/>
    <path class="st0" d="M165.4,74.9c0-2.4,1.8-4.1,4.3-4.1s4.3,1.7,4.3,4.1-1.8,4.2-4.3,4.2-4.3-1.7-4.3-4.2ZM172.2,75c0-1.4-1-2.4-2.4-2.4s-2.4,1-2.4,2.4,1,2.5,2.4,2.5,2.4-1.1,2.4-2.5Z"/>
    <path class="st0" d="M183.4,79h-2.4l-2.2-2.8c-.2-.2-.4-.4-.7-.4h-.6v3.2h-1.9v-8h1.9v3.2h.6c.3,0,.6-.3.8-.5l1.9-2.7h2.2l-2.7,3.7c0,0,0,.1-.1.2h.1c0,.1,3.2,4.1,3.2,4.1Z"/>
    <path class="st0" d="M183.9,78.5v-1.6c1,.5,2,.7,2.8.7s1.7-.3,1.7-.8-.4-.7-1.3-.9h-.7c-1.8-.5-2.6-1.4-2.6-2.5,0-1.6,1.5-2.4,3.5-2.4s1.7.1,2.6.4v1.6c-.9-.4-1.8-.4-2.4-.4s-1.7.2-1.7.8.3.6,1.4.8h.7c1.7.5,2.4,1.3,2.4,2.4,0,1.7-1.5,2.6-3.5,2.6s-2.2-.2-3.1-.6Z"/>
    <path class="st0" d="M194.2,78.5v-1.6c1,.5,2,.7,2.8.7s1.7-.3,1.7-.8-.4-.7-1.3-.9h-.7c-1.8-.5-2.6-1.4-2.6-2.5,0-1.6,1.5-2.4,3.5-2.4s1.7.1,2.6.4v1.6c-.9-.4-1.8-.4-2.4-.4s-1.7.2-1.7.8.3.6,1.4.8h.7c1.7.5,2.4,1.3,2.4,2.4,0,1.7-1.5,2.6-3.5,2.6s-2.2-.2-3.1-.6Z"/>
    <path class="st0" d="M202.2,79v-8h1.9v8h-1.9Z"/>
    <path class="st0" d="M213.7,71v8h-1.6l-3.4-4.2c-.5-.6-.6-.8-.7-.9h0v5.1h-1.7v-8h1.6l3.4,4.2c.4.6.6.8.7.9h0v-5.1h1.7Z"/>
    <path class="st0" d="M222.1,78.6c-.7.4-1.3.6-2.3.6-2.6,0-4.5-1.7-4.5-4.2s1.9-4.1,4.5-4.1,1.9.2,2.3.4v1.7c-.8-.4-1.5-.4-2.1-.4-1.7,0-2.8,1-2.8,2.4,0,1.4,1.1,2.4,2.7,2.4s1.3-.1,2.1-.6v1.7Z"/>
    <path class="st0" d="M230.1,77.5v1.5h-6.4v-8h6.3v1.6h-4.4v1.7h4.2v1.4h-4.2v1.8h4.5Z"/>
    <path class="st0" d="M237.8,71v8h-1.9v-6l-2.2.9v-1.6l2.7-1.3h1.3Z"/>
    <path class="st0" d="M246.3,73.8c0,1.4-1,2.8-3.1,5.2h-2.1c.9-1.1,1.6-1.9,2.2-2.6-.3,0-.6,0-.9,0-2.2,0-3.3-1.2-3.3-2.8s1.3-2.8,3.6-2.8,3.6.9,3.6,2.9ZM242.7,75c1.1,0,1.7-.5,1.7-1.3s-.7-1.3-1.8-1.3-1.8.5-1.8,1.3.7,1.3,1.8,1.3Z"/>
    <path class="st0" d="M254.4,73.8c0,1.4-1,2.8-3.1,5.2h-2.1c.9-1.1,1.6-1.9,2.2-2.6-.3,0-.6,0-.9,0-2.2,0-3.3-1.2-3.3-2.8s1.3-2.8,3.6-2.8,3.6.9,3.6,2.9ZM250.8,75c1.1,0,1.7-.5,1.7-1.3s-.7-1.3-1.8-1.3-1.8.5-1.8,1.3.7,1.3,1.8,1.3Z"/>
    <path class="st0" d="M262.3,76.7c0,1.4-1.1,2.4-3.4,2.4s-3.5-1-3.5-2.4.5-1.5,1.2-1.9c-.6-.3-.9-1-.9-1.7,0-1.3,1.1-2.3,3.2-2.3s3.2.9,3.2,2.2-.4,1.4-1,1.7c.7.4,1.2,1,1.2,1.9ZM260.5,76.7c0-.7-.6-1-1.7-1s-1.7.4-1.7,1,.6,1,1.7,1,1.6-.4,1.6-1ZM257.4,73.2c0,.6.5,1,1.5,1s1.5-.4,1.5-.9-.5-.9-1.5-.9-1.5.4-1.5.9Z"/>
  </g>
  <g>
    <path class="st0" d="M4.9,50.5c.9,0,1.1-.2,1.3-1.5.4-3.1.7-10.9.7-18.1v-7.5c0-5.2,0-9.6-.2-12.7-.2-3-.5-3.4-4.4-4.2,0-.4,0-1.2,0-1.8,0-.2.4-.3.8-.3s4.3.2,7.3.2h13.6c7.3,0,10.5-.3,11.4-.5.2,0,.6.5.6.8,0,5.4-.2,8.3-.2,10.1s-.1.5-1,.4c-1-.1-1.1-.2-1.2-.5-.8-4.3-1.4-6.1-3.9-6.8-2-.7-3.7-.8-8.8-.8s-4.7,0-6.3.5c-.6.2-.8.8-1,2.8-.8,7.1-.4,16-.4,16.9,0,.5.3.8.4.8.4,0,1.6,0,6.1,0s6-.2,8.2-.3c1.6-.1,1.8-.4,2.8-4.1.2-.2,2.2-.7,2.4-.5,0,2.2-.1,4.1-.1,6.2s.4,5.5.4,6.8c-.4.2-2.1.3-2.4.1-.4-1.8-.7-3.6-1.9-4.3-1.5-.8-3.1-1-8.9-1s-5.2,0-6.5.1c-.6,0-.8.8-.8,3v5.9c0,3.6.2,5.8.4,7.1.4,2.8,2.2,3.3,6.6,3.4.5,0,.7.4.6.7l-.5,2h-1.7c-3.1,0-4.9-.3-8-.3s-6.6.3-6.9.3-.7-.1-.8-.7c-.3-1.1-.1-2,0-2.2h2.3Z"/>
    <path class="st0" d="M52.9,23.2c5.2,0,13.9,5,13.9,15.2s-4.8,11.6-5.8,12.2c-3.3,2-6.8,3.3-10,3.3s-8.5-1.7-11.4-5.5c-2.2-2.9-3.1-7-3.1-9.6s1.2-6.7,3-9c1.5-1.9,3-3.1,5-4.3,2.5-1.4,6.2-2.4,8.5-2.4h0ZM49.5,26c-1.3,0-2.8.6-3.8,1.7-2,2-2.9,5.1-2.9,10s1.9,8,3.7,9.9c2.5,2.8,5.2,3.4,7,3.4s2.7-.4,3.7-1.3c1.6-1.6,3.2-4.3,3.2-8.8s-1.4-9.4-4.5-12.2c-1.4-1.4-3.9-2.6-6.4-2.6h0Z"/>
  </g>
  <g>
    <path class="st0" d="M71.4,50.9c1.7-.6,2.1-.8,2.2-1.7.1-.9.1-2.9.1-9.4v-6.8c0-1.8-.1-2.2-3.1-3.1-.6-.2-1-1.2-.8-1.6,2.9-1.9,5.9-3.5,8.2-5.1.3-.1.7-.3.9-.3.3,0,.7.5.5,1.2,0,1.9-.3,3.7-.2,5.9,1.5-.8,6.1-4.4,7-5.1.7-.5,1.5-1,2.2-1,1.9,0,4.1,1.9,4.1,3.5s-1.9,3.4-2.6,4c-.4.3-.8.6-1.3.6s-.7-.1-1-.5c-.6-.8-1.6-1.7-2.9-1.7s-3.7,1.4-5,2.5c-.5.5-.7,1.4-.7,5v9.4c0,1.9,0,2.8.3,3.2.2.4.5.6,1.4.5l4-.2c.4,0,.7.4.6.7l-.5,2.3h-9.9c-1.9,0-3.8.2-4.4.2s-.4-.2-.2-.7l.7-1.7Z"/>
    <path class="st0" d="M108.6,23.3c2.3,0,4.9,1.3,6.2,2.7,1.3,1.3,2.3,2.9,3,4.9.7-.1,2.1-.5,2.3-.2.2.2.2.4.1.7-.2.7-.8,2-1.4,2.2-5.1,1.2-14.8,3.1-18,4-.4,0-.5.5-.5,1.4.2,7.4,4.2,10.5,9.1,10.5s6.4-1.4,8.9-3.7c.4-.3,1.3-.3,1.2,0,0,1.8-.2,2.3-.7,2.8-3.2,2.7-6.7,4.2-9.3,4.9-1,.3-1.9.4-2.8.4-5.2,0-8.6-3.2-9.5-4.2-1.2-1.3-3.4-4.6-3.4-9.5s3.8-11.6,7.9-14.5c1.9-1.4,4.6-2.4,6.7-2.4h0ZM112,31.7c0-2.1-2.9-5.5-6-5.5s-1.2.2-1.9.8c-2.2,1.5-3.5,5.2-3.3,8.4,3.5-.9,6.9-1.5,10.3-2.3.5-.1.9-.4.9-1.2h0Z"/>
  </g>
  <g>
    <path class="st0" d="M135,26.2c-3.1.6-3.2,1-2.8,2.9.4,1.8,3.5,10,6,16.2,0,.4.5.2.6,0,2-4.5,3.6-7.9,5.5-12.6.3-.7.1-1.2,0-2.1-1.1-3.4-1.3-3.5-4.5-4.1,0-.3.1-1,.4-1.5,0-.5.4-.6.8-.6,4.4,0,8,0,11.3-.1,0,1.4,0,2-.3,2.2-2.6.5-3.1.8-2.6,2.2,1.7,5.2,3.8,11.8,5.8,16.9,0,.3.5.3.7,0,1.3-2.9,4.2-9.6,5.4-13.1.7-2,1.4-3.9,1.3-4.4,0-.5-.8-1-4.6-1.6,0-.5.4-1.8.6-1.9,5.2,0,6.7,0,7.9-.2,1.3,0,2-.1,2.6-.1s.5,0,.5.4v1c0,.4,0,.6-1,1-1.1.5-1.6,1.3-2.8,3.7-1.3,2.7-6,13.2-7.9,17.2-1.3,3-2.2,5-2.5,5.8-.2.7-.9.9-1.9.9s-.8,0-1-.8c-2-5.9-4.1-11.8-6.2-17,0-.3-.4-.4-.5-.1-4,8.7-5.7,12.4-7.6,17.3-.2.4-.4.7-.8.7s-.7,0-1,0c-.4-.2-.8-.4-1-1.3-2.6-7.3-5.2-14.1-8.5-22.1-1.3-3.1-1.8-3.7-4.2-4.1-.3,0-.4-.1-.3-.4l.5-1.2c0-.4.2-.5.5-.5,3.9,0,7-.2,10.6-.2s.6.1.7.6l.5,1.4Z"/>
    <path class="st0" d="M186.6,23.2c5.2,0,13.9,5,13.9,15.2s-4.8,11.6-5.8,12.2c-3.3,2-6.8,3.3-10,3.3s-8.5-1.7-11.4-5.5c-2.2-2.9-3.1-7-3.1-9.6s1.2-6.7,3-9c1.5-1.9,3-3.1,5-4.3,2.5-1.4,6.2-2.4,8.5-2.4h0ZM183.2,26c-1.3,0-2.8.6-3.8,1.7-2,2-2.8,5.1-2.8,10s2,8,3.7,9.9c2.5,2.8,5.2,3.4,7,3.4s2.7-.4,3.7-1.3c1.7-1.6,3.2-4.3,3.2-8.8s-1.3-9.4-4.5-12.2c-1.4-1.4-3.9-2.6-6.4-2.6h0Z"/>
  </g>
  <g>
    <path class="st0" d="M205.2,50.9c1.7-.6,2.1-.8,2.2-1.7.2-.9.2-2.9.2-9.4v-6.8c0-1.8-.2-2.2-3.1-3.1-.6-.2-1-1.2-.8-1.6,2.8-1.9,5.9-3.5,8.2-5.1.3-.1.8-.3.9-.3.3,0,.7.5.5,1.2,0,1.9-.3,3.7-.2,5.9,1.5-.8,6.1-4.4,7-5.1.7-.5,1.5-1,2.2-1,1.9,0,4.1,1.9,4.1,3.5s-1.9,3.4-2.5,4c-.5.3-.8.6-1.3.6s-.7-.1-1-.5c-.6-.8-1.6-1.7-2.8-1.7s-3.7,1.4-5,2.5c-.5.5-.7,1.4-.7,5v9.4c0,1.9,0,2.8.3,3.2.2.4.5.6,1.3.5l4-.2c.4,0,.7.4.6.7l-.4,2.3h-9.9c-1.9,0-3.8.2-4.3.2s-.5-.2-.2-.7l.7-1.7Z"/>
    <path class="st0" d="M227.4,40.6c0-3.7,1.2-8,5.5-12,2.6-2.4,7.9-5.2,11.5-5.2s4.3.4,5.2.8c.3,0,.8-.1.8-.6,0-1,.2-2.5.2-5.2,0-6.2,0-8.6-.2-10.1,0-1-.2-1.4-3.7-1.9-.4,0-.5-.4-.6-.6l-.2-.6c0-.3,0-.5.2-.5,3.5-1.4,6-2.5,8.8-4.2.2-.1.8-.2,1-.2.3,0,.5.6.5,1.2,0,6.8-.5,22.1-.5,30.8v9.1c0,2.4,0,6.1.5,7.9.1,1,.5,1.1,1,1.1.8,0,2.5-.7,3.4-1,.4-.2.8-.2.8.2.2.7.4,1.6.4,2.2s-.5.7-.9.8c-2.3.8-8.2,2.1-9,2.1s-1.3-.7-1.4-1.5c0-1.1-.2-2.8-.2-3.8-5.7,2.8-10.2,4.5-11.2,4.5-3.1,0-6.1-1.9-7.8-3.4-2.8-2.7-4.2-6.9-4.2-9.8h0ZM241.1,26.9c-1.1,0-3.7.7-5.2,2.3-1.5,1.4-2.7,4-2.7,7.1s.2,7.2,4.1,10.7c2.3,2,4.3,2.2,6.1,2.2s4.9-.8,6.1-1.7c.7-.5.9-.6,1-1.1.3-3.2.3-12.8,0-15.5-.2-.8-.2-1.1-1.3-1.8-2.1-1.5-5-2.2-7.9-2.2h0Z"/>
  </g>
</svg>